<svg width="312" height="175" viewBox="0 0 312 175" fill="none" xmlns="http://www.w3.org/2000/svg">
<path d="M128.874 135.052C149.399 120.094 141.232 91.5935 128.704 83.1014C129.195 18.1893 62.146 7.05022 44.3666 36.0457C25.7589 38.205 9.72884 70.7035 15.8001 89.8181C21.8713 108.933 52.6459 124.698 72.2 121.364C78.6199 134.751 108.349 150.01 128.874 135.052Z" fill="#FFCA0E"/>
<path d="M134.874 148.052C155.399 133.094 147.232 104.594 134.704 96.1014C135.195 31.1893 68.146 20.0502 50.3666 49.0457C31.7589 51.205 15.7288 83.7035 21.8001 102.818C27.8713 121.933 58.6459 137.698 78.2 134.364C84.6199 147.751 114.349 163.01 134.874 148.052Z" fill="#808080"/>
<path d="M130.874 140.052C151.399 125.094 143.232 96.5935 130.704 88.1014C131.195 23.1893 64.146 12.0502 46.3666 41.0457C27.7589 43.205 11.7288 75.7035 17.8001 94.8181C23.8713 113.933 54.6459 129.698 74.2 126.364C80.6199 139.751 110.349 155.01 130.874 140.052Z" fill="white"/>
<path fill-rule="evenodd" clip-rule="evenodd" d="M55.0114 89.3534C55.1784 75.7254 67.1644 64.823 81.7828 65.0022C96.4012 65.1813 108.116 76.3742 107.949 90.0022C107.782 103.63 95.7964 114.533 81.178 114.353C66.5595 114.174 54.8444 102.981 55.0114 89.3534ZM163.373 112.44C159.607 113.794 155.259 114.471 150.329 114.471C145.483 114.471 141.304 113.551 137.792 111.71C134.28 109.848 131.592 107.214 129.73 103.807C127.89 100.379 126.969 96.4333 126.969 91.9688C126.969 87.1657 128.006 82.8916 130.08 79.1465C132.153 75.4014 135.084 72.5132 138.871 70.482C142.659 68.4296 147.017 67.4034 151.947 67.4034C155.883 67.4034 159.691 67.8794 163.373 68.8316V81.4952C162.104 80.7334 160.591 80.141 158.834 79.7178C157.078 79.2946 155.301 79.0831 153.502 79.0831C149.778 79.0831 146.837 80.1516 144.679 82.2886C142.542 84.4257 141.474 87.3244 141.474 90.9849C141.474 94.6242 142.542 97.5018 144.679 99.6177C146.837 101.712 149.715 102.76 153.312 102.76C156.634 102.76 159.988 101.913 163.373 100.221V112.44ZM213.742 90.7945C213.742 95.3648 212.758 99.459 210.79 103.077C208.822 106.674 206.072 109.478 202.538 111.488C199.005 113.477 195.048 114.471 190.668 114.471C186.394 114.471 182.501 113.509 178.988 111.583C175.497 109.636 172.778 106.918 170.832 103.426C168.885 99.9139 167.912 95.9467 167.912 91.5245C167.912 86.8907 168.896 82.7224 170.863 79.0196C172.831 75.3168 175.592 72.4603 179.147 70.4502C182.702 68.419 186.743 67.4034 191.271 67.4034C195.63 67.4034 199.523 68.3767 202.951 70.3233C206.4 72.2487 209.055 75.01 210.917 78.607C212.8 82.1828 213.742 86.2453 213.742 90.7945ZM199.206 91.1753C199.206 87.4302 198.486 84.4786 197.047 82.3204C195.609 80.1622 193.641 79.0831 191.144 79.0831C188.415 79.0831 186.288 80.1198 184.765 82.1934C183.241 84.267 182.479 87.1975 182.479 90.9849C182.479 94.6877 183.231 97.5759 184.733 99.6495C186.256 101.723 188.319 102.76 190.922 102.76C192.509 102.76 193.937 102.294 195.207 101.363C196.476 100.432 197.46 99.0993 198.158 97.3643C198.856 95.6293 199.206 93.5663 199.206 91.1753ZM263.507 90.7945C263.507 95.3648 262.523 99.459 260.556 103.077C258.588 106.674 255.837 109.478 252.304 111.488C248.77 113.477 244.813 114.471 240.434 114.471C236.16 114.471 232.266 113.509 228.754 111.583C225.263 109.636 222.544 106.918 220.597 103.426C218.651 99.9139 217.677 95.9467 217.677 91.5245C217.677 86.8907 218.661 82.7224 220.629 79.0196C222.597 75.3168 225.358 72.4603 228.913 70.4502C232.467 68.419 236.509 67.4034 241.037 67.4034C245.395 67.4034 249.289 68.3767 252.716 70.3233C256.165 72.2487 258.821 75.01 260.683 78.607C262.566 82.1828 263.507 86.2453 263.507 90.7945ZM248.971 91.1753C248.971 87.4302 248.252 84.4786 246.813 82.3204C245.374 80.1622 243.406 79.0831 240.91 79.0831C238.18 79.0831 236.054 80.1198 234.53 82.1934C233.007 84.267 232.245 87.1975 232.245 90.9849C232.245 94.6877 232.996 97.5759 234.499 99.6495C236.022 101.723 238.085 102.76 240.688 102.76C242.274 102.76 243.703 102.294 244.972 101.363C246.242 100.432 247.226 99.0993 247.924 97.3643C248.622 95.6293 248.971 93.5663 248.971 91.1753ZM295.15 113.678L285.058 94.4444C284.381 92.9209 283.979 91.8736 283.852 91.3023H283.693V113.678H269.982V68.1651H283.693V89.8106H283.852C284.254 88.668 284.708 87.6101 285.216 86.6368L294.293 68.1651H310.543L297.626 89.8741L311.781 113.678H295.15ZM40.7217 113.329C44.1283 112.546 46.6885 111.668 48.4023 110.694V86.1924H25.9634V96.5708H34.6914V103.077C33.9508 103.246 32.7977 103.331 31.2319 103.331C27.8677 103.331 25.244 102.263 23.3608 100.126C21.4989 97.9885 20.5679 95.0262 20.5679 91.2388C20.5679 87.2821 21.6787 84.1718 23.9004 81.9078C26.1432 79.6438 29.1478 78.5118 32.9141 78.5118C35.1992 78.5118 37.3045 78.7022 39.23 79.0831C41.1554 79.4428 43.1655 80.0987 45.2603 81.0508V69.0855C40.7746 67.9641 36.5534 67.4034 32.5967 67.4034C27.2012 67.4034 22.5145 68.3767 18.5366 70.3233C14.5588 72.2699 11.4696 75.1158 9.26904 78.8609C7.08968 82.606 6 86.8907 6 91.7149C6 98.9089 8.16878 104.505 12.5063 108.504C16.8439 112.482 23.0011 114.471 30.978 114.471C34.0672 114.471 37.3151 114.09 40.7217 113.329Z" fill="#999999"/>
<ellipse cx="79.7714" cy="88" rx="26.471" ry="24.6775" transform="rotate(-179.298 79.7714 88)" fill="#FFCA0E"/>
<path d="M88.3823 69.3243C88.1382 69.4943 87.989 69.7104 88.0006 69.9754C88.0058 70.0939 88.0674 70.1606 88.1618 70.2441C88.292 70.3593 88.3609 70.5068 88.4819 70.6265C88.6897 70.832 88.9114 70.9455 89.2325 70.9951C89.6211 71.0553 89.9004 70.5416 89.9471 70.3027C89.9949 70.0581 90.0725 69.6192 89.8495 69.4035C89.5627 69.1261 89.0834 68.9402 88.6304 69.0177C88.4589 69.047 88.1654 69.4173 88.4586 69.4173" stroke="white" stroke-width="3" stroke-linecap="round" stroke-linejoin="round"/>
<path d="M96.769 83.6925C96.4119 82.4463 96.0399 81.1557 95.4865 80.1534C95.009 79.2885 94.3724 78.4528 94.0688 77.3312C93.9593 76.9266 94.0108 76.2989 94.0212 75.8656C94.0338 75.3412 94.191 74.7651 94.437 74.4681C95.0949 73.6736 95.751 73.9719 96.3532 74.7539C97.3917 76.1028 98.3124 77.9518 98.6601 80.235C98.88 81.6787 99.1037 83.2747 98.9482 84.786C98.9173 85.0866 98.8346 85.6678 98.7077 85.8976C98.6172 86.0617 98.3727 85.9793 98.2619 85.9793C97.8184 85.9793 97.3765 85.6822 97.1147 84.9992C96.9716 84.6262 96.93 84.1358 96.7239 83.8558" stroke="white" stroke-width="4" stroke-linecap="round" stroke-linejoin="round"/>
<path d="M161.664 110.762C157.898 112.116 153.55 112.793 148.62 112.793C143.774 112.793 139.595 111.873 136.083 110.032C132.571 108.17 129.883 105.536 128.021 102.129C126.181 98.7017 125.26 94.7555 125.26 90.291C125.26 85.488 126.297 81.2139 128.371 77.4688C130.444 73.7236 133.375 70.8354 137.162 68.8042C140.95 66.7518 145.308 65.7256 150.238 65.7256C154.174 65.7256 157.982 66.2017 161.664 67.1538V79.8174C160.395 79.0557 158.882 78.4632 157.125 78.04C155.369 77.6169 153.592 77.4053 151.793 77.4053C148.069 77.4053 145.128 78.4738 142.97 80.6108C140.833 82.7479 139.765 85.6466 139.765 89.3071C139.765 92.9465 140.833 95.8241 142.97 97.9399C145.128 100.035 148.006 101.082 151.603 101.082C154.925 101.082 158.279 100.236 161.664 98.543V110.762ZM212.033 89.1167C212.033 93.687 211.049 97.7812 209.081 101.399C207.113 104.996 204.363 107.8 200.829 109.81C197.296 111.799 193.339 112.793 188.959 112.793C184.685 112.793 180.792 111.831 177.279 109.905C173.788 107.959 171.069 105.24 169.123 101.749C167.176 98.2362 166.203 94.2689 166.203 89.8467C166.203 85.2129 167.187 81.0446 169.154 77.3418C171.122 73.639 173.883 70.7826 177.438 68.7725C180.993 66.7412 185.034 65.7256 189.562 65.7256C193.921 65.7256 197.814 66.6989 201.242 68.6455C204.691 70.571 207.346 73.3322 209.208 76.9292C211.091 80.505 212.033 84.5675 212.033 89.1167ZM197.497 89.4976C197.497 85.7524 196.777 82.8008 195.338 80.6426C193.9 78.4844 191.932 77.4053 189.435 77.4053C186.706 77.4053 184.579 78.4421 183.056 80.5156C181.532 82.5892 180.771 85.5197 180.771 89.3071C180.771 93.0099 181.522 95.8981 183.024 97.9717C184.547 100.045 186.61 101.082 189.213 101.082C190.8 101.082 192.228 100.617 193.498 99.6855C194.767 98.7546 195.751 97.4215 196.449 95.6865C197.147 93.9515 197.497 91.8885 197.497 89.4976ZM261.798 89.1167C261.798 93.687 260.814 97.7812 258.847 101.399C256.879 104.996 254.128 107.8 250.595 109.81C247.061 111.799 243.104 112.793 238.725 112.793C234.451 112.793 230.557 111.831 227.045 109.905C223.554 107.959 220.835 105.24 218.888 101.749C216.942 98.2362 215.968 94.2689 215.968 89.8467C215.968 85.2129 216.952 81.0446 218.92 77.3418C220.888 73.639 223.649 70.7826 227.204 68.7725C230.758 66.7412 234.8 65.7256 239.328 65.7256C243.686 65.7256 247.58 66.6989 251.007 68.6455C254.456 70.571 257.112 73.3322 258.974 76.9292C260.857 80.505 261.798 84.5675 261.798 89.1167ZM247.262 89.4976C247.262 85.7524 246.543 82.8008 245.104 80.6426C243.665 78.4844 241.697 77.4053 239.201 77.4053C236.471 77.4053 234.345 78.4421 232.821 80.5156C231.298 82.5892 230.536 85.5197 230.536 89.3071C230.536 93.0099 231.287 95.8981 232.79 97.9717C234.313 100.045 236.376 101.082 238.979 101.082C240.565 101.082 241.994 100.617 243.263 99.6855C244.533 98.7546 245.517 97.4215 246.215 95.6865C246.913 93.9515 247.262 91.8885 247.262 89.4976ZM293.441 112L283.349 92.7666C282.672 91.2432 282.27 90.1958 282.143 89.6245H281.984V112H268.273V66.4873H281.984V88.1328H282.143C282.545 86.9902 283 85.9323 283.507 84.959L292.584 66.4873H308.834L295.917 88.1963L310.072 112H293.441Z" fill="#FFCA0E"/>
<path d="M46.6934 109.017C44.9795 109.99 42.4193 110.868 39.0127 111.651C35.6061 112.413 32.3582 112.793 29.269 112.793C21.2922 112.793 15.1349 110.805 10.7974 106.827C6.4598 102.828 4.29102 97.2311 4.29102 90.0371C4.29102 85.2129 5.3807 80.9282 7.56006 77.1831C9.76058 73.438 12.8498 70.5921 16.8276 68.6455C20.8055 66.6989 25.4922 65.7256 30.8877 65.7256C34.8444 65.7256 39.0656 66.2863 43.5513 67.4077V79.373C41.4565 78.4209 39.4465 77.765 37.521 77.4053C35.5955 77.0244 33.4902 76.834 31.2051 76.834C27.4388 76.834 24.4342 77.966 22.1914 80.23C19.9697 82.494 18.8589 85.6043 18.8589 89.561C18.8589 93.3485 19.7899 96.3107 21.6519 98.4478C23.535 100.585 26.1587 101.653 29.5229 101.653C31.0887 101.653 32.2419 101.569 32.9824 101.399V94.8931H24.2544V84.5146H46.6934V109.017Z" fill="#FFCA0E"/>
</svg>
