<svg width="145" height="151" viewBox="0 0 145 151" fill="none" xmlns="http://www.w3.org/2000/svg">
<path fill-rule="evenodd" clip-rule="evenodd" d="M22.9959 74.7028C15.8972 74.1335 16.3426 81.3183 19.7361 87.4348C20.0275 88.6147 20.4771 89.8433 21.051 91.0553C21.2233 92.3459 21.6227 93.7357 22.1982 95.1272C22.3767 95.8812 22.6208 96.6564 22.9216 97.4355C22.8313 100.031 24.4487 103.176 26.8886 105.394C28.5519 107.943 31.7432 110.053 35.2721 109.907C41.0446 109.668 41.9778 109.346 46.4614 107.801C48.4794 107.106 51.2166 106.162 55.4379 104.867C62.9835 102.552 66.1535 98.8052 68.9902 95.4527C71.2665 92.7626 73.3283 90.326 77.264 89.0857C82.1221 87.5547 85.073 88.0606 88.2752 88.6095C90.9004 89.0595 93.6945 89.5385 97.8469 88.9479C102.771 88.2476 105.999 86.1214 109.528 83.7973C112.606 81.7708 115.911 79.5938 120.769 78.0806C127.044 76.1258 128.352 70.0084 125.94 67.0436C125.936 65.6307 125.6 64.264 124.97 63.1357C124.766 61.4538 124.158 59.8773 123.206 58.6989C122.744 56.9422 121.987 55.3285 120.99 54.102C120.6 52.5093 119.97 51.0222 119.141 49.8187C117.948 43.8493 113.415 38.9829 107.614 44.1414C105.815 45.7414 104.384 47.0667 103.192 48.1712L103.192 48.1713C97.3657 53.5682 97.2298 53.6941 87.5824 54.8317C82.3877 55.4442 79.2359 54.2151 76.247 53.0495C72.549 51.6074 69.1006 50.2625 62.3412 52.6236C53.9813 55.5437 51.6538 60.0677 49.0495 65.1299C47.8462 67.4688 46.5838 69.9226 44.64 72.3861C40.2899 77.8991 37.2172 77.2501 31.5828 76.0601C29.2503 75.5675 26.4788 74.9821 22.9959 74.7028Z" fill="#BB8B8F"/>
<path d="M29.7928 90.7205C20.9481 89.629 11.6907 68.7924 23.5852 69.7652C35.4798 70.7379 39.0697 75.2682 45.2329 67.4827C51.396 59.6971 50.736 51.9981 62.9653 47.7481C75.1946 43.4981 76.579 51.3481 88.203 49.996C99.827 48.644 97.6455 48.7383 108.251 39.3374C118.857 29.9366 125.184 53.9412 114.706 57.0449C104.228 60.1485 101.95 69.502 92.3885 69.7728C82.8274 70.0436 79.38 63.2748 70.5028 65.9569C61.6256 68.6389 63.9724 82.7389 50.2942 86.6863C36.616 90.6337 38.6376 91.8121 29.7928 90.7205Z" fill="#EC7979"/>
<path d="M31.7836 95.6728C22.9388 94.5813 13.6814 73.7447 25.5759 74.7175C37.4705 75.6902 41.0604 80.2205 47.2236 72.435C53.3868 64.6494 52.7267 56.9504 64.956 52.7004C77.1853 48.4504 78.5697 56.3004 90.1937 54.9483C101.818 53.5963 99.6362 53.6906 110.242 44.2897C120.848 34.8889 127.174 58.8935 116.697 61.9972C106.219 65.1008 103.94 74.4543 94.3792 74.7251C84.8181 74.9959 81.3708 68.2271 72.4935 70.9092C63.6163 73.5912 65.9631 87.6912 52.2849 91.6386C38.6067 95.586 40.6283 96.7644 31.7836 95.6728Z" fill="#F1F1F1"/>
<path d="M33.4142 100.744C24.5176 99.6694 15.2458 78.8377 27.211 79.787C39.1762 80.7364 42.779 85.2624 48.9955 77.4592C55.212 69.656 54.5635 61.9531 66.8761 57.6756C79.1887 53.398 80.5657 61.2505 92.2634 59.874C103.961 58.4975 101.766 58.5964 112.456 49.1678C123.145 39.7392 129.462 63.747 118.914 66.874C108.366 70.0009 106.055 79.3653 96.4345 79.6556C86.8144 79.9459 83.3598 73.1795 74.4229 75.8813C65.486 78.5831 67.8187 92.6878 54.0489 96.6655C40.2792 100.643 42.3108 101.818 33.4142 100.744Z" fill="#EC7979"/>
<path d="M34.2684 103.514C25.4237 102.423 16.1663 81.5861 28.0608 82.5589C39.9554 83.5316 43.5453 88.0619 49.7085 80.2763C55.8716 72.4908 55.2116 64.7918 67.4409 60.5418C79.6702 56.2918 81.0546 64.1418 92.6786 62.7897C104.303 61.4376 102.121 61.532 112.727 52.1311C123.333 42.7302 129.659 66.7348 119.182 69.8385C108.704 72.9422 106.425 82.2957 96.8641 82.5665C87.303 82.8373 83.8556 76.0685 74.9784 78.7505C66.1012 81.4326 68.448 95.5326 54.7698 99.48C41.0916 103.427 43.1132 104.606 34.2684 103.514Z" fill="#F1F1F1"/>
<path d="M33.6602 101.031C24.9801 100.688 17.1263 84.163 28.8304 84.2178C40.5345 84.2726 43.8021 87.7669 50.3849 80.9907C56.9676 74.2144 56.7962 67.9358 69.1579 63.6825C81.5197 59.4292 82.3981 65.7865 93.98 63.9499C105.562 62.1132 103.398 62.3271 114.476 53.9471C125.554 45.5671 130.311 64.8761 119.753 68.079C109.196 71.2818 106.357 79.1022 96.8834 79.9223C87.4096 80.7424 84.423 75.4016 75.4748 78.1583C66.5266 80.9149 67.9663 92.3424 54.1904 96.4379C40.4144 100.533 42.3403 101.374 33.6602 101.031Z" fill="#EC7979"/>
<path d="M33.8538 103.273C25.2204 103.185 17.8369 88.112 29.4887 87.8539C41.1406 87.5957 44.3017 90.7405 51.0347 84.3011C57.7677 77.8617 57.7627 72.0607 70.183 67.8017C82.6033 63.5427 83.3102 69.3977 94.8903 67.3938C106.47 65.3899 104.31 65.6448 115.561 57.6039C126.813 49.563 131.039 67.2915 120.443 70.5316C109.846 73.7717 106.814 81.0778 97.3596 82.0861C87.9052 83.0944 85.0726 78.2349 76.0905 81.02C67.1084 83.805 68.2403 94.3335 54.416 98.4839C40.5918 102.634 42.4872 103.361 33.8538 103.273Z" fill="#F1F1F1"/>
<path d="M35.8062 104.989C27.435 105.322 20.9837 92.9629 32.2995 92.1951C43.6153 91.4274 46.5335 93.9295 53.3692 88.1827C60.205 82.4359 60.474 77.5454 72.7241 73.3684C84.9743 69.1913 85.3836 74.0942 96.7122 71.8581C108.041 69.622 105.933 69.9388 117.228 62.6285C128.522 55.3182 131.785 70.0653 121.353 73.2972C110.92 76.5292 107.633 82.8319 98.414 84.1283C89.1946 85.4248 86.6761 81.4615 77.831 84.2336C68.9859 87.0057 69.5869 95.8286 55.9799 99.9804C42.373 104.132 44.1774 104.655 35.8062 104.989Z" fill="#EC7979"/>
</svg>
