<svg width="233" height="248" viewBox="0 0 233 248" fill="none" xmlns="http://www.w3.org/2000/svg">
<path fill-rule="evenodd" clip-rule="evenodd" d="M61.5528 189.761C67.1505 203.35 63.2151 213.352 52.8895 217.203C42.9856 220.434 32.6198 216.767 28.0816 204.286C23.885 190.107 24.65 171.746 33.6746 168.144C42.6555 165.743 56.0778 178.284 61.5528 189.761Z" fill="#BF970A"/>
<path d="M60.064 188.1C65.1685 201.675 60.9796 211.421 50.6762 214.902C40.8079 217.785 30.6956 213.85 26.6021 201.399C22.8977 187.285 24.2159 169.197 33.2283 165.92C42.1607 163.828 55.0156 176.611 60.064 188.1Z" fill="#FBFBFB"/>
<path d="M60.0251 203.852C59.4132 206.097 57.9529 206.97 56.2861 206.455C54.7322 205.902 53.7872 204.44 54.4249 202.437C55.2695 200.254 57.1404 198.026 58.62 198.447C59.978 199.014 60.4483 201.884 60.0251 203.852Z" fill="#DFDFDF"/>
<path d="M57.6029 200.648C57.4708 200.406 57.5602 200.102 57.8027 199.97C58.0452 199.838 58.2418 199.731 58.481 200.17C58.7202 200.609 58.5236 200.716 58.2812 200.848C58.0387 200.98 57.735 200.891 57.6029 200.648Z" fill="#4E4E4E" fill-opacity="0.65"/>
<path fill-rule="evenodd" clip-rule="evenodd" d="M141.529 207.627C144.669 221.985 139.048 231.146 128.208 233.136C117.893 234.587 108.326 229.167 106.036 216.085C104.379 201.392 108.338 183.447 117.853 181.475C127.115 180.679 138.142 195.371 141.529 207.627Z" fill="#BF970A"/>
<path d="M140.728 205.604C143.791 219.781 138.221 228.808 127.519 230.745C117.335 232.152 107.908 226.779 105.68 213.863C104.081 199.359 108.032 181.659 117.427 179.736C126.569 178.974 137.415 193.5 140.728 205.604Z" fill="#FBFBFB"/>
<path d="M138.385 221.181C137.451 223.312 135.878 223.963 134.305 223.209C132.849 222.435 132.128 220.851 133.052 218.962C134.207 216.926 136.384 214.996 137.786 215.629C139.046 216.389 139.091 219.296 138.385 221.181Z" fill="#DFDFDF"/>
<path d="M116.525 189.139C115.592 191.27 114.019 191.92 112.446 191.167C110.99 190.393 110.269 188.808 111.193 186.92C112.348 184.884 114.524 182.954 115.926 183.586C117.187 184.346 117.232 187.254 116.525 189.139Z" fill="#F4EEEE"/>
<path d="M136.457 217.658C136.362 217.398 136.495 217.111 136.754 217.016C137.013 216.921 137.224 216.844 137.396 217.313C137.568 217.782 137.358 217.859 137.099 217.955C136.84 218.05 136.552 217.917 136.457 217.658Z" fill="#4E4E4E" fill-opacity="0.65"/>
<path fill-rule="evenodd" clip-rule="evenodd" d="M203.975 194.504C194.226 205.717 183.377 206.487 175.182 198.599C167.742 190.828 166.335 179.575 175.564 169.837C186.486 159.665 203.456 152.251 210.833 159.041C217.101 166.322 211.868 184.34 203.975 194.504Z" fill="#BF970A"/>
<path d="M175.137 165.076C165.357 175.819 165.958 186.958 174.718 194.78C183.27 201.84 194.481 202.493 202.88 192.383C211.492 180.515 216.643 162.658 209.062 155.595C201.138 149.699 184.12 156.302 175.137 165.076Z" fill="white"/>
<path d="M169.575 180.143C169.371 182.555 170.477 184.027 172.278 184.261C173.982 184.412 175.419 183.427 175.512 181.235C175.469 178.781 174.445 175.836 172.86 175.592C171.34 175.542 169.864 178.078 169.575 180.143Z" fill="#DFDFDF"/>
<path fill-rule="evenodd" clip-rule="evenodd" d="M68.0771 154.459C63.7051 157.045 66.9186 161.05 71.4112 163.22C72.0662 163.788 72.8333 164.319 73.6661 164.79C74.2971 165.471 75.1013 166.117 76.0089 166.692C76.4227 167.058 76.8834 167.409 77.3786 167.739C78.3926 169.289 80.628 170.458 82.9617 170.748C84.9791 171.55 87.7072 171.468 89.7044 169.932C92.971 167.42 93.3827 166.849 95.3609 164.105C96.2513 162.87 97.459 161.195 99.3871 158.705C102.834 154.253 103.141 150.767 103.417 147.646C103.638 145.143 103.838 142.875 105.622 140.534C107.824 137.644 109.752 136.726 111.845 135.73C113.56 134.913 115.385 134.044 117.563 131.992C120.145 129.56 121.153 126.993 122.255 124.188C123.215 121.742 124.247 119.114 126.457 116.235C129.311 112.516 127.559 108.413 124.935 107.676C124.351 106.854 123.594 106.195 122.762 105.797C121.952 104.9 120.95 104.231 119.91 103.936C118.919 103.101 117.814 102.472 116.729 102.167C115.846 101.399 114.868 100.791 113.89 100.43C110.741 97.4412 106.098 96.4683 104.837 101.86C104.447 103.531 104.158 104.89 103.917 106.024L103.916 106.026L103.916 106.027C102.739 111.567 102.711 111.697 97.5556 116.326C94.7794 118.818 92.437 119.397 90.2156 119.947C87.4673 120.626 84.9044 121.26 81.9349 125.415C78.2624 130.553 78.7654 134.147 79.3283 138.168C79.5884 140.026 79.8613 141.976 79.7409 144.211C79.4716 149.212 77.4137 150.097 73.6403 151.72C72.0782 152.392 70.222 153.19 68.0771 154.459Z" fill="#BF970A"/>
<path d="M79.5346 160.261C73.9351 163.269 59.9604 154.951 67.2867 150.617C74.613 146.283 78.5697 147.441 78.9505 140.369C79.3314 133.297 75.7751 129.086 81.1445 121.573C86.514 114.06 90.5542 118.06 96.7652 112.484C102.976 106.908 101.745 107.861 104.047 98.0183C106.349 88.1751 119.922 99.545 115.1 105.669C110.279 111.793 112.806 118.178 107.35 122.275C101.895 126.371 97.0989 123.851 93.0352 129.07C88.9715 134.289 96.1471 141.531 89.8093 149.465C83.4716 157.399 85.1341 157.252 79.5346 160.261Z" fill="#EC7979"/>
<path d="M82.7336 162.324C77.134 165.333 63.1593 157.015 70.4857 152.681C77.812 148.346 81.7687 149.505 82.1495 142.433C82.5303 135.36 78.974 131.15 84.3435 123.637C89.713 116.124 93.7532 120.124 99.9642 114.548C106.175 108.971 104.944 109.925 107.246 100.082C109.548 90.2387 123.121 101.609 118.299 107.733C113.478 113.857 116.005 120.241 110.549 124.338C105.094 128.435 100.298 125.914 96.2342 131.133C92.1704 136.352 99.3461 143.595 93.0083 151.529C86.6705 159.462 88.3331 159.316 82.7336 162.324Z" fill="#F1F1F1"/>
<path d="M85.7725 164.605C80.1499 167.645 66.1687 159.335 73.5266 154.958C80.8844 150.582 84.8468 151.733 85.2514 144.628C85.6561 137.523 82.1049 133.306 87.5115 125.742C92.9181 118.179 96.955 122.184 103.199 116.563C109.443 110.942 108.205 111.904 110.545 102.01C112.884 92.1161 126.453 103.492 121.6 109.658C116.747 115.825 119.259 122.229 113.777 126.362C108.296 130.494 103.497 127.978 99.4063 133.233C95.316 138.488 102.485 145.74 96.1067 153.729C89.7281 161.718 91.3951 161.565 85.7725 164.605Z" fill="#EC7979"/>
<path d="M87.4111 165.866C81.8116 168.874 67.8369 160.557 75.1632 156.222C82.4895 151.888 86.4462 153.047 86.8271 145.975C87.2079 138.902 83.6516 134.691 89.0211 127.178C94.3905 119.665 98.4307 123.666 104.642 118.089C110.853 112.513 109.621 113.467 111.923 103.624C114.225 93.7805 127.799 105.15 122.977 111.274C118.155 117.398 120.682 123.783 115.227 127.88C109.771 131.977 104.975 129.456 100.912 134.675C96.848 139.894 104.024 147.137 97.6859 155.071C91.3481 163.004 93.0107 162.857 87.4111 165.866Z" fill="#F1F1F1"/>
<path d="M86.0343 164.671C80.839 168.047 69.4579 161.661 76.2951 156.871C83.1323 152.081 86.4745 152.769 87.5155 146.112C88.5565 139.454 85.8699 135.869 91.3151 128.3C96.7603 120.73 99.8909 124.07 105.878 118.229C111.865 112.387 110.693 113.403 113.69 103.96C116.688 94.5167 127.413 103.799 122.585 110.014C117.758 116.229 119.327 121.951 114.149 126.332C108.971 130.713 105.031 128.834 100.957 134.125C96.8827 139.417 102.429 145.478 96.0955 153.538C89.7618 161.598 91.2296 161.294 86.0343 164.671Z" fill="#EC7979"/>
<path d="M87.0703 165.896C82.0072 169.402 71.4982 163.668 78.1761 158.717C84.8539 153.766 87.9902 154.295 89.2574 147.772C90.5247 141.248 88.1317 137.873 93.6087 130.276C99.0856 122.679 101.909 125.797 107.826 119.859C113.743 113.921 112.591 114.959 115.829 105.642C119.067 96.3251 128.832 104.906 123.997 111.158C119.162 117.411 120.407 122.914 115.317 127.396C110.228 131.878 106.576 130.216 102.494 135.538C98.4118 140.86 103.409 146.524 97.0695 154.636C90.7303 162.748 92.1333 162.391 87.0703 165.896Z" fill="#F1F1F1"/>
<path d="M88.914 166.091C84.1773 169.734 75.3291 165.196 81.6014 160.087C87.8736 154.978 90.6036 155.232 92.216 149.07C93.8284 142.907 91.9701 139.949 97.3818 132.47C102.793 124.991 105.052 127.677 110.726 121.708C116.401 115.738 115.305 116.791 118.869 107.881C122.433 98.9718 130.409 106.214 125.666 112.394C120.923 118.574 121.607 123.598 116.773 128.151C111.939 132.704 108.84 131.434 104.832 136.692C100.824 141.95 104.809 146.84 98.5967 154.863C92.3846 162.887 93.6508 162.448 88.914 166.091Z" fill="#EC7979"/>
<path fill-rule="evenodd" clip-rule="evenodd" d="M111.375 140.336C106.311 139.93 106.629 145.055 109.05 149.418C109.258 150.259 109.578 151.136 109.988 152C110.111 152.921 110.396 153.912 110.806 154.905C110.933 155.442 111.107 155.995 111.322 156.55C111.257 158.401 112.411 160.644 114.151 162.226C115.337 164.045 117.613 165.55 120.131 165.446C124.248 165.276 124.914 165.046 128.112 163.944C129.551 163.448 131.503 162.775 134.514 161.851C139.896 160.2 142.157 157.527 144.181 155.136C145.804 153.217 147.275 151.479 150.082 150.595C153.547 149.503 155.652 149.864 157.936 150.255C159.809 150.576 161.802 150.918 164.763 150.497C168.275 149.997 170.578 148.48 173.095 146.823C175.29 145.377 177.648 143.824 181.113 142.745C185.588 141.351 186.522 136.988 184.802 134.873C184.799 133.865 184.559 132.89 184.11 132.085C183.964 130.886 183.531 129.761 182.852 128.921C182.522 127.668 181.982 126.517 181.271 125.642C180.993 124.506 180.543 123.445 179.952 122.587C179.101 118.329 175.868 114.858 171.73 118.537C170.447 119.679 169.426 120.624 168.576 121.412C164.42 125.261 164.323 125.351 157.442 126.162C153.737 126.599 151.489 125.723 149.357 124.891C146.719 123.863 144.26 122.903 139.438 124.587C133.476 126.67 131.815 129.897 129.958 133.508C129.1 135.176 128.199 136.926 126.813 138.683C123.71 142.616 121.518 142.153 117.499 141.304C115.836 140.953 113.859 140.535 111.375 140.336Z" fill="#BF970A"/>
<path d="M116.224 151.761C109.915 150.982 103.312 136.12 111.796 136.814C120.28 137.508 122.841 140.739 127.237 135.186C131.633 129.633 131.162 124.141 139.885 121.11C148.607 118.079 149.595 123.678 157.886 122.713C166.177 121.749 164.621 121.816 172.186 115.111C179.751 108.406 184.263 125.527 176.79 127.741C169.316 129.955 167.691 136.626 160.871 136.82C154.052 137.013 151.593 132.185 145.261 134.098C138.929 136.011 140.603 146.068 130.847 148.883C121.091 151.699 122.533 152.539 116.224 151.761Z" fill="#EC7979"/>
<path d="M117.643 155.293C111.334 154.515 104.731 139.653 113.215 140.346C121.699 141.04 124.26 144.272 128.656 138.718C133.052 133.165 132.581 127.674 141.304 124.642C150.027 121.611 151.014 127.21 159.305 126.246C167.596 125.281 166.04 125.349 173.605 118.643C181.17 111.938 185.683 129.06 178.209 131.273C170.735 133.487 169.11 140.159 162.291 140.352C155.471 140.545 153.012 135.717 146.68 137.63C140.348 139.543 142.022 149.6 132.266 152.416C122.51 155.231 123.952 156.072 117.643 155.293Z" fill="#F1F1F1"/>
<path d="M118.806 158.91C112.461 158.144 105.848 143.285 114.382 143.962C122.916 144.64 125.486 147.868 129.92 142.302C134.354 136.736 133.892 131.242 142.674 128.191C151.456 125.14 152.438 130.741 160.782 129.759C169.125 128.777 167.56 128.848 175.184 122.123C182.809 115.398 187.314 132.522 179.791 134.752C172.267 136.982 170.619 143.662 163.757 143.869C156.895 144.076 154.431 139.249 148.057 141.177C141.682 143.104 143.346 153.164 133.525 156.001C123.703 158.838 125.152 159.677 118.806 158.91Z" fill="#EC7979"/>
<path d="M119.416 160.886C113.107 160.108 106.504 145.246 114.988 145.939C123.472 146.633 126.033 149.865 130.429 144.311C134.825 138.758 134.354 133.267 143.077 130.235C151.799 127.204 152.787 132.803 161.078 131.839C169.369 130.874 167.813 130.942 175.378 124.236C182.942 117.531 187.455 134.653 179.982 136.866C172.508 139.08 170.883 145.752 164.063 145.945C157.244 146.138 154.785 141.31 148.453 143.223C142.121 145.136 143.795 155.193 134.039 158.009C124.283 160.824 125.724 161.665 119.416 160.886Z" fill="#F1F1F1"/>
<path d="M118.982 159.115C112.791 158.871 107.189 147.084 115.537 147.123C123.885 147.162 126.216 149.654 130.911 144.821C135.607 139.988 135.484 135.509 144.302 132.476C153.119 129.442 153.745 133.976 162.006 132.666C170.267 131.356 168.724 131.509 176.626 125.532C184.527 119.554 187.92 133.327 180.39 135.611C172.859 137.896 170.835 143.474 164.077 144.059C157.32 144.644 155.19 140.834 148.807 142.801C142.425 144.767 143.452 152.918 133.626 155.839C123.8 158.76 125.173 159.36 118.982 159.115Z" fill="#EC7979"/>
<path d="M119.12 160.714C112.962 160.651 107.696 149.9 116.006 149.716C124.317 149.532 126.572 151.775 131.375 147.182C136.177 142.589 136.173 138.451 145.032 135.414C153.891 132.376 154.396 136.552 162.655 135.123C170.915 133.693 169.374 133.875 177.399 128.14C185.424 122.404 188.439 135.05 180.881 137.361C173.323 139.672 171.16 144.883 164.417 145.602C157.673 146.321 155.653 142.855 149.246 144.842C142.839 146.828 143.647 154.338 133.786 157.298C123.926 160.259 125.278 160.777 119.12 160.714Z" fill="#F1F1F1"/>
<path d="M120.513 161.938C114.542 162.176 109.94 153.36 118.011 152.813C126.083 152.265 128.164 154.05 133.04 149.951C137.916 145.852 138.107 142.364 146.845 139.384C155.583 136.405 155.875 139.902 163.955 138.307C172.035 136.712 170.532 136.938 178.588 131.724C186.644 126.51 188.972 137.028 181.53 139.333C174.089 141.639 171.745 146.134 165.169 147.059C158.593 147.984 156.797 145.157 150.488 147.134C144.179 149.111 144.607 155.404 134.902 158.366C125.196 161.327 126.484 161.7 120.513 161.938Z" fill="#EC7979"/>
<path fill-rule="evenodd" clip-rule="evenodd" d="M101.158 38.9471L101.158 38.9467C111.419 23.4868 119.465 11.3633 112.974 17.732C109.752 21.8957 105.892 27.7771 101.149 35.0025L101.149 35.0026L101.149 35.0028C92.3166 48.4611 80.4236 66.5822 63.8898 86.9515C61.7892 89.1607 59.5787 91.5009 57.2532 93.9795C55.7738 95.6955 53.442 98.2954 50.6759 101.357C64.726 83.4307 69.8655 75.4928 71.4987 72.5896C71.492 72.6126 71.4854 72.6358 71.4789 72.6592C74.029 68.2181 76.8522 63.4783 79.4537 59.1105C79.8701 58.4115 80.2807 57.7221 80.6836 57.0449C82.7839 54.5891 84.7505 52.3355 86.5597 50.2623C90.1891 46.1034 93.1849 42.6704 95.3554 39.7869C98.2585 34.6312 92.6173 41.0026 84.9425 49.8177C88.3426 43.9365 89.8791 40.8007 86.916 43.9849C84.8442 46.9429 82.515 50.8676 79.6933 55.6222L79.2805 56.3178C77.1946 58.704 75.0767 61.1099 73.0311 63.3898C73.051 63.3762 73.0707 63.3626 73.0902 63.349C70.6717 65.9991 63.9434 74.3442 49.0076 96.7314C47.823 98.6767 45.6257 102.096 43.1394 105.966L43.1392 105.966L43.1385 105.967L43.138 105.968C42.3283 107.228 41.4879 108.536 40.6418 109.856C55.1038 78.1855 70.4578 58.0437 80.5344 44.8251C83.8926 40.4196 86.6647 36.7832 88.6222 33.7452C91.2359 28.0028 85.1143 36.0612 77.3081 46.3372L77.308 46.3373C74.2269 50.3932 70.8834 54.7946 67.7109 58.8293C67.7305 58.8145 67.7499 58.7997 67.7691 58.7849C65.5156 61.5972 59.3715 70.4105 46.2287 93.9061C45.2081 95.9423 43.2907 99.5275 41.1212 103.584C38.4421 108.594 35.3785 114.322 33.1442 118.74L33.0269 118.865C30.0811 121.683 27.7094 124.818 26.069 127.548C23.9791 129.53 22.3633 131.14 21.5057 132.139C20.0478 133.502 18.4971 134.411 17.2258 135.157C15.9546 135.902 14.9628 136.484 14.6226 137.192C13.1436 139.67 12.9912 141.441 13.5024 142.587C13.453 142.599 13.4056 142.61 13.3609 142.62C13.1099 142.676 12.9465 142.713 13.0161 142.864C13.1017 143.051 13.3996 143.108 13.7529 143.031C13.9079 143.252 14.0922 143.441 14.2982 143.6C14.1041 143.969 14.0354 144.285 14.148 144.357C14.2307 144.41 14.3018 144.262 14.4111 144.033C14.4493 143.953 14.4922 143.863 14.542 143.769C14.7423 143.892 14.9579 143.99 15.1832 144.065C15.1695 144.095 15.156 144.126 15.1425 144.157C14.8789 144.767 14.761 145.303 14.8793 145.354C14.9509 145.385 15.014 145.198 15.1111 144.91L15.1111 144.91C15.1746 144.722 15.2525 144.491 15.3567 144.25C15.3741 144.209 15.3923 144.17 15.4109 144.131C15.6639 144.196 15.9261 144.232 16.19 144.24C16.1862 144.266 16.1824 144.291 16.1787 144.316C16.1461 144.532 16.1248 144.673 16.2045 144.676C16.2939 144.679 16.3775 144.503 16.4269 144.241C17.3837 144.213 18.3334 143.829 18.9186 143.135C19.8673 142.01 20.4513 140.561 21.0347 139.113C21.7036 137.453 22.3717 135.795 23.5878 134.63C25.0746 133.206 26.2104 132.11 27.0984 131.243L27.1025 131.24C30.2419 129.447 34.8807 126.545 39.5152 123.604C42.5435 122.303 45.7142 120.921 48.6477 119.641L48.6483 119.641L48.6531 119.639C52.8669 117.802 56.5906 116.178 58.6986 115.318C83.1797 104.143 92.4941 98.8431 95.498 96.885L95.4584 96.9259L95.4482 96.9365C99.7513 94.1824 104.433 91.2849 108.747 88.6149C119.677 81.8501 128.248 76.5451 122.33 78.7305C119.136 80.4107 115.268 82.813 110.582 85.7233L110.581 85.7237L110.581 85.7239L110.581 85.724L110.58 85.7243L110.58 85.7243L110.58 85.7244L110.58 85.7245C98.2852 93.3598 80.3611 104.491 54.2338 115.252C56.3819 114.082 58.1988 113.103 59.4392 112.467C82.7954 99.0697 91.5276 92.7916 94.307 90.4863C94.2926 90.5059 94.2781 90.5258 94.2637 90.5459C95.392 89.6281 96.5494 88.6964 97.7201 87.7607C107.781 83.0979 116.424 79.7135 123.411 76.9775L123.411 76.9773L123.412 76.9771L123.412 76.977L123.412 76.9769C128.558 74.9618 132.806 73.2984 136.06 71.7351C141.322 68.2535 131.926 71.9498 119.946 76.6634L119.945 76.6638C115.216 78.5241 110.085 80.5429 105.293 82.3413C105.317 82.3386 105.341 82.3357 105.365 82.3328C104.949 82.4849 104.434 82.6839 103.808 82.9403C104.752 82.1974 105.687 81.4633 106.604 80.7432L106.62 80.7312L106.62 80.7311L106.62 80.7309C116.786 72.7484 124.758 66.4887 119.036 69.1459C116.022 71.1444 112.425 73.9792 108.067 77.4134L108.067 77.4134L108.066 77.4135L108.066 77.4138C104.791 79.9948 101.086 82.9144 96.8758 86.072C93.9339 87.4842 90.2041 89.3502 85.5148 91.8042C86.3154 91.1227 86.9158 90.5819 87.3559 90.1643C87.3428 90.1849 87.3297 90.2057 87.3167 90.2267C91.0804 86.7228 95.197 83.0209 98.9905 79.6095L98.9914 79.6087C101.296 77.5361 103.482 75.5708 105.396 73.8223C107.647 72.5405 109.766 71.3549 111.745 70.2483C116.585 67.541 120.58 65.3063 123.582 63.292C127.908 59.3432 120.606 63.3347 110.527 68.9878C112.878 66.6288 113.353 65.7159 110.606 67.2219C108.783 68.6145 106.748 70.3586 104.452 72.3969C101.1 74.2738 97.6456 76.1941 94.351 77.9711C94.375 77.9654 94.3988 77.9597 94.4224 77.9538C91.2303 79.637 82.0848 85.2891 60.7305 101.688C58.9905 103.158 55.8144 105.696 52.2207 108.569L52.2199 108.569C49.2201 110.967 45.9294 113.597 42.9401 116.032C42.4828 116.315 42.0485 116.587 41.6408 116.845C45.1741 113.669 48.7339 110.569 52.304 107.547L52.5693 107.337L52.5696 107.337L52.5699 107.336L52.5713 107.335C57.1556 103.711 61.2071 100.507 63.5118 98.7555C67.4557 95.5486 71.0317 92.6131 74.2725 89.9284C100.58 69.8906 125.621 54.2614 142.757 43.5662C150.265 38.8805 156.255 35.1418 160.169 32.3944C166.904 26.1423 157.865 31.5385 143.788 39.9425C138.436 43.1378 132.356 46.768 126.137 50.358C123.353 52.3639 120.835 54.0578 117.737 56.1415C112.986 59.3365 106.873 63.4482 96.3506 71.0073C99.8359 67.8548 101.91 65.8346 103.067 64.6345C103.051 64.6589 103.035 64.6835 103.019 64.7082C107.527 60.0964 112.451 55.1817 116.989 50.6527C128.486 39.178 137.501 30.1796 130.988 34.8578C127.571 37.9028 123.503 41.9729 118.575 46.9038C109.324 56.16 97.0411 68.4493 80.3444 82.6833C77.7681 84.586 75.0194 86.6256 72.0822 88.8153C83.2058 78.6743 87.9119 73.6372 89.6653 71.5285C89.6546 71.5499 89.6439 71.5716 89.6332 71.5934C90.5396 70.5227 91.4701 69.4337 92.4124 68.338C94.5934 66.5445 96.4905 64.9399 98.0776 63.4849C100.12 61.1421 99.2653 61.4887 96.6844 63.408C97.7737 62.1582 98.8538 60.9229 99.9057 59.7196L99.9093 59.7155L99.9182 59.7054L99.9194 59.7039C107.137 51.4491 113.028 44.7107 111.499 45.2138C114.812 42.4795 117.926 39.9489 120.809 37.6057C127.512 32.1573 132.969 27.7223 136.787 24.098C142.482 17.0084 131.242 26.2391 116.909 38.0102L116.909 38.0102L116.909 38.0103L116.907 38.0125L116.906 38.013L116.905 38.0141L116.904 38.0145L116.903 38.0153C111.248 42.6598 105.111 47.6995 99.3434 52.288C99.3751 52.2736 99.4065 52.259 99.4376 52.2444C96.6287 54.4399 90.2672 59.9905 77.903 72.4808C84.1874 64.5623 87.3283 60.0646 88.7647 57.7815C88.7534 57.814 88.7421 57.8468 88.731 57.8799C92.713 51.6706 97.1077 45.0492 101.157 38.9475L101.158 38.9471ZM38.414 119.774L38.5423 119.666L38.5303 119.667L38.414 119.774ZM47.8827 101.98C59.5738 87.7305 67.8682 75.1039 74.1268 64.8921C66.3138 74.4894 57.271 86.5809 47.8827 101.98ZM108.428 47.76C96.3668 57.8106 81.9581 70.437 66.556 86.3403C64.6258 88.6408 62.5414 91.1021 60.2913 93.734C67.074 87.2832 70.6981 84.203 72.3985 82.8786C72.3778 82.8891 72.357 82.8996 72.336 82.91C76.3227 79.7586 80.5774 76.3041 84.4982 73.1207L84.4987 73.1203L84.499 73.1201L84.4993 73.1199L84.5023 73.1174L84.5155 73.1067C86.1377 71.7896 87.7026 70.519 89.1675 69.3358C93.6653 64.4845 97.4858 60.1004 100.784 56.3161L100.784 56.3159C103.706 52.9622 106.219 50.0796 108.428 47.76ZM82.1586 76.6776C74.0106 83.3519 63.8943 91.9416 52.3943 103.325C64.4603 93.8115 74.1953 84.7694 82.1586 76.6776ZM56.0088 108.301C72.0497 94.51 86.4698 85.002 98.2247 77.9952C92.1498 83.4635 84.6133 90.1292 75.0904 97.3808C73.0615 98.4866 70.9106 99.6693 68.6311 100.934C66.6885 102.123 63.1694 104.158 59.1876 106.461C58.1528 107.06 57.0866 107.677 56.0088 108.301ZM77.8626 97.817C74.5218 100.308 70.1846 103.424 64.584 107.282C73.6534 102.15 81.4656 97.0851 88.22 92.3538C84.891 94.0318 81.4363 95.8469 77.8626 97.817Z" fill="#BF970A"/>
<path d="M87.5475 57.2746C101.619 35.3325 120.844 8.24425 111.79 17.1267C98.8333 33.8685 75.569 78.3814 26.0981 126.373C18.2621 133.227 15.9221 136.463 14.6373 140.664C13.3524 144.866 42.2774 111.77 50.2852 103.341C94.3122 52.8594 89.269 52.1438 87.5475 57.2746Z" fill="#57A90E"/>
<path d="M98.1598 51.6827C118.548 35.463 143.546 13.6048 135.603 23.4927C120.252 38.0658 78.404 65.7444 35.5385 119.717C29.4887 128.188 26.5063 130.842 22.4721 132.553C18.4378 134.264 48.4778 102.18 56.0695 93.3742C101.899 44.5271 103.072 49.4422 98.1598 51.6827Z" fill="#408E02"/>
<path d="M86.1331 89.6215C99.4324 77.2401 117.139 62.3867 109.423 66.6167C97.7324 75.5463 77.3304 98.9257 35.2549 121.651C28.7106 124.717 23.6566 129.45 22.0893 132.149C20.5219 134.848 45.9316 117.967 52.8484 113.817C91.5418 88.0465 88.1531 86.3608 86.1331 89.6215Z" fill="#408E02"/>
<path d="M93.0802 89.9406C107.176 78.4739 125.833 64.8346 117.852 68.5406C105.593 76.6705 83.6765 98.6369 40.1788 118.505C33.4445 121.127 28.0862 125.513 26.3423 128.101C24.5983 130.69 51.0774 115.542 58.2557 111.862C98.5818 88.7299 95.3131 86.8219 93.0802 89.9406Z" fill="#408E02"/>
<path d="M104.11 81.736C121.043 75.3806 142.215 66.274 134.877 71.1298C121.637 77.4892 91.9679 85.5038 52.2403 112.117C46.4562 116.442 39.9978 118.846 36.9582 119.104C33.9185 119.363 60.568 104.54 67.4475 100.329C108.083 77.7824 107.844 81.3167 104.11 81.736Z" fill="#50A30E"/>
<path d="M93.1673 77.3658C109.15 68.7452 128.897 56.7537 122.399 62.6867C110.185 70.8804 81.5466 82.7219 46.4306 115.182C41.4095 120.378 35.3097 123.645 32.2611 124.27C29.2126 124.895 53.3849 106.288 59.5468 101.083C96.4166 72.7686 96.8914 76.4917 93.1673 77.3658Z" fill="#408E02"/>
<path d="M71.1525 82.3047C85.2403 71.1684 102.676 56.2473 96.8941 62.8796C86.0928 72.7818 60.9297 89.6114 29.6772 125.797C25.1962 131.452 19.82 135.683 17.1555 136.923C14.491 138.164 35.9211 116.494 41.3941 110.57C74.0796 77.5752 74.4098 80.6932 71.1525 82.3047Z" fill="#408E02"/>
<path d="M70.2953 72.0539C79.3065 56.3608 91.7268 36.938 85.7324 43.3796C77.3047 55.4122 64.6186 83.4412 31.8434 118.26C26.6238 123.252 23.2067 129.241 22.4664 132.209C21.7261 135.177 40.7003 111.303 45.9808 105.205C74.8577 68.7921 71.3059 68.4258 70.2953 72.0539Z" fill="#408E02"/>
<path d="M88.4497 70.9881C100.142 57.1761 115.859 40.3099 108.802 45.5657C98.3437 55.8822 80.8136 81.1657 42.2995 109.507C36.2656 113.477 31.8251 118.752 30.562 121.537C29.2989 124.323 52.2654 104.26 58.5584 99.2141C93.5252 68.602 90.0977 67.6015 88.4497 70.9881Z" fill="#61AC26"/>
<path d="M94.2647 96.3312C109.47 86.5993 129.4 75.0773 121.146 78.1252C108.156 84.9607 83.9874 103.748 39.0422 120.069C32.1416 122.194 26.3581 125.917 24.3278 128.155C22.2976 130.393 50.0469 117.76 57.515 114.712C99.7835 95.4177 96.8393 93.6388 94.2647 96.3312Z" fill="#218000"/>
<path d="M71.8476 62.7845C83.91 49.3403 98.4892 31.5144 94.1719 39.1816C85.3426 50.9112 62.8567 71.7331 39.624 113.527C36.4364 120.006 31.8273 125.116 29.2799 126.756C26.7325 128.397 43.6288 103.015 47.8241 96.1261C73.6119 57.4728 74.9326 60.6804 71.8476 62.7845Z" fill="#358B17"/>
<path d="M101.835 64.1029C117.766 47.8065 138.889 27.7278 129.804 34.2525C115.905 46.6388 91.2311 75.9898 41.7115 111.231C34.0344 116.246 27.9789 122.467 26.035 125.618C24.091 128.769 54.1655 104.354 62.3283 98.1502C108.129 60.9086 104.329 60.2584 101.835 64.1029Z" fill="#408E02"/>
<path d="M124.954 49.7527C147.528 36.7205 168.281 23.1598 158.986 31.7891C141.658 43.9511 83.6543 75.5376 33.4067 122.716C27.6717 128.686 31.2489 125.554 22.4043 134.025C20.1274 136.205 19.7714 140.116 17.7351 142.53C15.6987 144.944 9.25142 143.605 13.439 136.587C14.1196 135.171 17.4065 134.26 20.3221 131.533C24.6114 126.539 47.8619 106.268 54.5428 100.489C107.291 60.6448 114.109 57.5671 124.954 49.7527Z" fill="url(#paint0_linear)"/>
<path d="M66.5274 58.224C77.7375 43.9671 91.0839 25.1311 87.4386 33.1399C79.4759 45.4979 58.034 67.7592 38.4862 111.401C35.8999 118.147 31.613 123.567 29.0916 125.358C26.5701 127.148 41.4308 100.512 45.0452 93.3008C67.7371 52.7339 69.5659 55.9357 66.5274 58.224Z" fill="#31890E"/>
<ellipse cx="14.3498" cy="141.927" rx="1.56582" ry="1" transform="rotate(33.1886 14.3498 141.927)" fill="#957F32"/>
<path d="M13.6503 141.425C13.7655 141.676 13.4519 142.066 12.95 142.296C12.4481 142.527 11.9478 142.51 11.8326 142.259C11.7174 142.008 12.2395 142.072 12.7415 141.842C13.2434 141.612 13.4417 140.97 13.6503 141.425Z" fill="#E9E9E9"/>
<path d="M14.0448 142.069C13.908 141.981 13.5552 142.287 13.2568 142.751C12.9584 143.216 12.8275 143.664 12.9643 143.752C13.1012 143.84 13.2062 143.375 13.5046 142.911C13.8029 142.446 14.2927 142.228 14.0448 142.069Z" fill="#E9E9E9"/>
<path d="M14.6505 142.54C14.5322 142.489 14.2226 142.942 13.9589 143.552C13.6953 144.162 13.5775 144.697 13.6958 144.749C13.8141 144.8 13.9095 144.254 14.1731 143.644C14.4368 143.034 14.8648 142.633 14.6505 142.54Z" fill="#E9E9E9"/>
<path d="M15.0765 142.342C15.2082 142.347 15.3025 142.737 15.2872 143.214C15.2718 143.691 15.1526 144.075 15.0208 144.07C14.8891 144.066 15.0333 143.684 15.0487 143.206C15.064 142.729 14.8379 142.335 15.0765 142.342Z" fill="#E9E9E9"/>
<defs>
<linearGradient id="paint0_linear" x1="153.939" y1="20.4514" x2="11.5152" y2="148.058" gradientUnits="userSpaceOnUse">
<stop offset="0.703125" stop-color="#3A8414"/>
<stop offset="1" stop-color="white"/>
</linearGradient>
</defs>
</svg>
