<svg width="313" height="174" viewBox="0 0 313 174" fill="none" xmlns="http://www.w3.org/2000/svg">
<g filter="url(#filter0_dd)">
<path d="M130.874 139.052C151.399 124.094 143.232 95.5936 130.704 87.1014C131.195 22.1894 64.146 11.0502 46.3665 40.0457C27.7589 42.2051 11.7288 74.7035 17.8 93.8182C23.8713 112.933 54.6459 128.698 74.1999 125.364C80.6198 138.751 110.349 154.01 130.874 139.052Z" fill="white"/>
</g>
<g filter="url(#filter1_d)">
<ellipse cx="79.7714" cy="87" rx="26.471" ry="24.6775" transform="rotate(-179.298 79.7714 87)" fill="#FFCA0E"/>
<path d="M88.3823 68.3243C88.1382 68.4943 87.989 68.7104 88.0006 68.9754C88.0058 69.0939 88.0674 69.1606 88.1618 69.2441C88.292 69.3593 88.3609 69.5068 88.4819 69.6265C88.6897 69.832 88.9114 69.9455 89.2325 69.9951C89.6211 70.0553 89.9004 69.5416 89.9471 69.3027C89.9949 69.0581 90.0725 68.6192 89.8495 68.4035C89.5627 68.1261 89.0834 67.9402 88.6304 68.0177C88.4589 68.047 88.1654 68.4173 88.4586 68.4173" stroke="white" stroke-width="3" stroke-linecap="round" stroke-linejoin="round"/>
<path d="M96.769 82.6925C96.4119 81.4464 96.0399 80.1557 95.4865 79.1534C95.009 78.2885 94.3724 77.4528 94.0688 76.3312C93.9593 75.9266 94.0108 75.299 94.0212 74.8656C94.0338 74.3412 94.191 73.7651 94.437 73.4681C95.0949 72.6737 95.751 72.9719 96.3532 73.754C97.3917 75.1028 98.3124 76.9519 98.6601 79.2351C98.88 80.6788 99.1037 82.2748 98.9482 83.786C98.9173 84.0866 98.8346 84.6678 98.7077 84.8977C98.6172 85.0617 98.3727 84.9793 98.2619 84.9793C97.8184 84.9793 97.3765 84.6822 97.1147 83.9993C96.9716 83.6262 96.93 83.1358 96.7239 82.8559" stroke="white" stroke-width="4" stroke-linecap="round" stroke-linejoin="round"/>
</g>
<g filter="url(#filter2_d)">
<path d="M161.664 109.762C157.898 111.116 153.55 111.793 148.62 111.793C143.774 111.793 139.595 110.873 136.083 109.032C132.571 107.17 129.883 104.536 128.021 101.129C126.181 97.7017 125.26 93.7555 125.26 89.291C125.26 84.488 126.297 80.2139 128.371 76.4688C130.444 72.7236 133.375 69.8354 137.162 67.8042C140.95 65.7518 145.308 64.7256 150.238 64.7256C154.174 64.7256 157.982 65.2017 161.664 66.1538V78.8174C160.395 78.0557 158.882 77.4632 157.125 77.04C155.369 76.6169 153.592 76.4053 151.793 76.4053C148.069 76.4053 145.128 77.4738 142.97 79.6108C140.833 81.7479 139.765 84.6466 139.765 88.3071C139.765 91.9465 140.833 94.8241 142.97 96.9399C145.128 99.0347 148.006 100.082 151.603 100.082C154.925 100.082 158.279 99.2357 161.664 97.543V109.762ZM212.033 88.1167C212.033 92.687 211.049 96.7812 209.081 100.399C207.113 103.996 204.363 106.8 200.829 108.81C197.296 110.799 193.339 111.793 188.959 111.793C184.685 111.793 180.792 110.831 177.279 108.905C173.788 106.959 171.069 104.24 169.123 100.749C167.176 97.2362 166.203 93.2689 166.203 88.8467C166.203 84.2129 167.187 80.0446 169.154 76.3418C171.122 72.639 173.883 69.7826 177.438 67.7725C180.993 65.7412 185.034 64.7256 189.562 64.7256C193.921 64.7256 197.814 65.6989 201.242 67.6455C204.691 69.571 207.346 72.3322 209.208 75.9292C211.091 79.505 212.033 83.5675 212.033 88.1167ZM197.497 88.4976C197.497 84.7524 196.777 81.8008 195.338 79.6426C193.9 77.4844 191.932 76.4053 189.435 76.4053C186.706 76.4053 184.579 77.4421 183.056 79.5156C181.532 81.5892 180.771 84.5197 180.771 88.3071C180.771 92.0099 181.522 94.8981 183.024 96.9717C184.547 99.0452 186.61 100.082 189.213 100.082C190.8 100.082 192.228 99.6165 193.498 98.6855C194.767 97.7546 195.751 96.4215 196.449 94.6865C197.147 92.9515 197.497 90.8885 197.497 88.4976ZM261.798 88.1167C261.798 92.687 260.814 96.7812 258.847 100.399C256.879 103.996 254.128 106.8 250.595 108.81C247.061 110.799 243.104 111.793 238.725 111.793C234.451 111.793 230.557 110.831 227.045 108.905C223.554 106.959 220.835 104.24 218.888 100.749C216.942 97.2362 215.968 93.2689 215.968 88.8467C215.968 84.2129 216.952 80.0446 218.92 76.3418C220.888 72.639 223.649 69.7826 227.204 67.7725C230.758 65.7412 234.8 64.7256 239.328 64.7256C243.686 64.7256 247.58 65.6989 251.007 67.6455C254.456 69.571 257.112 72.3322 258.974 75.9292C260.857 79.505 261.798 83.5675 261.798 88.1167ZM247.262 88.4976C247.262 84.7524 246.543 81.8008 245.104 79.6426C243.665 77.4844 241.697 76.4053 239.201 76.4053C236.471 76.4053 234.345 77.4421 232.821 79.5156C231.298 81.5892 230.536 84.5197 230.536 88.3071C230.536 92.0099 231.287 94.8981 232.79 96.9717C234.313 99.0452 236.376 100.082 238.979 100.082C240.565 100.082 241.994 99.6165 243.263 98.6855C244.533 97.7546 245.517 96.4215 246.215 94.6865C246.913 92.9515 247.262 90.8885 247.262 88.4976ZM293.441 111L283.349 91.7666C282.672 90.2432 282.27 89.1958 282.143 88.6245H281.984V111H268.273V65.4873H281.984V87.1328H282.143C282.545 85.9902 283 84.9323 283.507 83.959L292.584 65.4873H308.834L295.917 87.1963L310.072 111H293.441Z" fill="#FFCA0E"/>
</g>
<g filter="url(#filter3_d)">
<path d="M46.6934 108.017C44.9795 108.99 42.4193 109.868 39.0127 110.651C35.6061 111.413 32.3582 111.793 29.269 111.793C21.2922 111.793 15.1349 109.805 10.7974 105.827C6.4598 101.828 4.29102 96.2311 4.29102 89.0371C4.29102 84.2129 5.3807 79.9282 7.56006 76.1831C9.76058 72.438 12.8498 69.5921 16.8276 67.6455C20.8055 65.6989 25.4922 64.7256 30.8877 64.7256C34.8444 64.7256 39.0656 65.2863 43.5513 66.4077V78.373C41.4565 77.4209 39.4465 76.765 37.521 76.4053C35.5955 76.0244 33.4902 75.834 31.2051 75.834C27.4388 75.834 24.4342 76.966 22.1914 79.23C19.9697 81.494 18.8589 84.6043 18.8589 88.561C18.8589 92.3485 19.7899 95.3107 21.6519 97.4478C23.535 99.5848 26.1587 100.653 29.5229 100.653C31.0887 100.653 32.2419 100.569 32.9824 100.399V93.8931H24.2544V83.5146H46.6934V108.017Z" fill="#FFCA0E"/>
</g>
<defs>
<filter id="filter0_dd" x="-9.53674e-07" y="0" width="177" height="173.167" filterUnits="userSpaceOnUse" color-interpolation-filters="sRGB">
<feFlood flood-opacity="0" result="BackgroundImageFix"/>
<feColorMatrix in="SourceAlpha" type="matrix" values="0 0 0 0 0 0 0 0 0 0 0 0 0 0 0 0 0 0 127 0"/>
<feOffset dx="4" dy="8"/>
<feColorMatrix type="matrix" values="0 0 0 0 0 0 0 0 0 0 0 0 0 0 0 0 0 0 0.5 0"/>
<feBlend mode="hard-light" in2="BackgroundImageFix" result="effect1_dropShadow"/>
<feColorMatrix in="SourceAlpha" type="matrix" values="0 0 0 0 0 0 0 0 0 0 0 0 0 0 0 0 0 0 127 0"/>
<feOffset dx="-2" dy="-4"/>
<feColorMatrix type="matrix" values="0 0 0 0 1 0 0 0 0 0.792157 0 0 0 0 0.054902 0 0 0 1 0"/>
<feBlend mode="normal" in2="effect1_dropShadow" result="effect2_dropShadow"/>
<feBlend mode="normal" in="SourceGraphic" in2="effect2_dropShadow" result="shape"/>
</filter>
<filter id="filter1_d" x="53" y="62" width="55.5428" height="52" filterUnits="userSpaceOnUse" color-interpolation-filters="sRGB">
<feFlood flood-opacity="0" result="BackgroundImageFix"/>
<feColorMatrix in="SourceAlpha" type="matrix" values="0 0 0 0 0 0 0 0 0 0 0 0 0 0 0 0 0 0 127 0"/>
<feOffset dx="2" dy="2"/>
<feColorMatrix type="matrix" values="0 0 0 0 0 0 0 0 0 0 0 0 0 0 0 0 0 0 0.4 0"/>
<feBlend mode="normal" in2="BackgroundImageFix" result="effect1_dropShadow"/>
<feBlend mode="normal" in="SourceGraphic" in2="effect1_dropShadow" result="shape"/>
</filter>
<filter id="filter2_d" x="125.26" y="64.7256" width="186.812" height="49.0679" filterUnits="userSpaceOnUse" color-interpolation-filters="sRGB">
<feFlood flood-opacity="0" result="BackgroundImageFix"/>
<feColorMatrix in="SourceAlpha" type="matrix" values="0 0 0 0 0 0 0 0 0 0 0 0 0 0 0 0 0 0 127 0"/>
<feOffset dx="2" dy="2"/>
<feColorMatrix type="matrix" values="0 0 0 0 0 0 0 0 0 0 0 0 0 0 0 0 0 0 0.4 0"/>
<feBlend mode="normal" in2="BackgroundImageFix" result="effect1_dropShadow"/>
<feBlend mode="normal" in="SourceGraphic" in2="effect1_dropShadow" result="shape"/>
</filter>
<filter id="filter3_d" x="4.29102" y="64.7256" width="44.4023" height="49.0679" filterUnits="userSpaceOnUse" color-interpolation-filters="sRGB">
<feFlood flood-opacity="0" result="BackgroundImageFix"/>
<feColorMatrix in="SourceAlpha" type="matrix" values="0 0 0 0 0 0 0 0 0 0 0 0 0 0 0 0 0 0 127 0"/>
<feOffset dx="2" dy="2"/>
<feColorMatrix type="matrix" values="0 0 0 0 0 0 0 0 0 0 0 0 0 0 0 0 0 0 0.4 0"/>
<feBlend mode="normal" in2="BackgroundImageFix" result="effect1_dropShadow"/>
<feBlend mode="normal" in="SourceGraphic" in2="effect1_dropShadow" result="shape"/>
</filter>
</defs>
</svg>
