<svg width="246" height="226" viewBox="0 0 246 226" fill="none" xmlns="http://www.w3.org/2000/svg">
<path fill-rule="evenodd" clip-rule="evenodd" d="M181.974 156.856C184.633 153.326 186.754 149.424 188.246 145.179C198.805 115.138 173.848 79.2753 132.503 65.0778C91.1579 50.8803 49.0818 63.7244 38.5233 93.7658C34.9585 103.908 35.442 114.714 39.2378 125.126C40.4638 148.37 61.2302 172.135 91.9846 182.696C123.153 193.399 154.779 187.174 170.099 169.138L226.673 198.838C228.296 199.894 230.304 200.398 232.389 200.12C236.949 199.511 240.15 195.391 239.539 190.916C239.157 188.115 237.371 185.839 234.97 184.678L181.974 156.856Z" fill="black" fill-opacity="0.49"/>
<rect x="174.791" y="148.382" width="70.8003" height="17.1199" transform="rotate(28.0929 174.791 148.382)" fill="#202020"/>
<ellipse cx="233.367" cy="189.532" rx="8.44646" ry="8.38461" transform="rotate(-7.56681 233.367 189.532)" fill="#202020"/>
<ellipse cx="236.348" cy="188.096" rx="8.39682" ry="8.42936" transform="rotate(-7.56681 236.348 188.096)" fill="#C4C4C4"/>
<rect x="177.709" y="147.334" width="69.8627" height="16.6809" transform="rotate(28.0929 177.709 147.334)" fill="#C4C4C4"/>
<ellipse cx="236.513" cy="187.148" rx="4.22323" ry="3.69533" transform="rotate(24.7369 236.513 187.148)" fill="#202020"/>
<ellipse cx="107.273" cy="127.632" rx="74.4587" ry="54.7303" transform="rotate(19.2777 107.273 127.632)" fill="#C4C4C4"/>
<ellipse cx="111.488" cy="113.15" rx="82.0175" ry="60.2864" transform="rotate(19.2777 111.488 113.15)" fill="#373737"/>
<path d="M171.747 162.633C151.122 179.751 109.678 180.463 82.858 166.985C42.5055 147.848 34.9495 119.03 34.9495 119.03C33.4722 71.8298 91.8614 63.5647 128.984 77.2485C159.782 88.6009 196.394 123.678 171.747 162.633Z" fill="#212121"/>
<path d="M104.94 84.766C95.3985 74.5401 80.3612 80.8989 76.5516 88.312C41.0343 92.3581 39.4014 129.751 56.4338 137.543C58.8509 147.572 77.6819 154.175 87.7275 149.585C97.7732 144.996 104.346 127.125 101.223 116.657C108.115 112.258 114.481 94.9919 104.94 84.766Z" fill="#A4A4A4"/>
<path d="M104.885 81.6263C95.3434 71.4005 80.3061 77.7593 76.4965 85.1724C40.9792 89.2184 39.3464 126.611 56.3787 134.403C58.7959 144.432 77.6269 151.035 87.6725 146.446C97.7181 141.856 104.291 123.985 101.168 113.517C108.06 109.118 114.426 91.8522 104.885 81.6263Z" fill="white"/>
<ellipse cx="70.938" cy="113.977" rx="16.2444" ry="15.1438" transform="rotate(173.135 70.938 113.977)" fill="#A4A4A4" fill-opacity="0.8"/>
<ellipse cx="71.3023" cy="111.851" rx="16.2444" ry="15.1438" transform="rotate(173.135 71.3023 111.851)" fill="#FFCA0E"/>
<path d="M75.0313 99.7946C74.8965 99.9177 74.8232 100.061 74.8517 100.221C74.8645 100.293 74.9073 100.329 74.9715 100.372C75.06 100.431 75.1138 100.516 75.1971 100.579C75.3401 100.687 75.4842 100.738 75.6835 100.742C75.9248 100.747 76.0532 100.412 76.0622 100.263C76.0716 100.111 76.0833 99.8374 75.9303 99.7242C75.7334 99.5786 75.4268 99.5042 75.1574 99.588C75.0555 99.6197 74.9069 99.8687 75.0852 99.845" stroke="white" stroke-width="3" stroke-linecap="round" stroke-linejoin="round"/>
<path d="M81.2942 107.857C80.9763 107.128 80.6457 106.373 80.2281 105.808C79.8677 105.32 79.4129 104.864 79.1376 104.206C79.0382 103.969 79.0189 103.583 78.9902 103.318C78.9555 102.998 79.0046 102.635 79.1302 102.434C79.4662 101.898 79.8895 102.026 80.319 102.453C81.0597 103.19 81.7692 104.24 82.1653 105.601C82.4157 106.462 82.6808 107.415 82.7083 108.346C82.7137 108.532 82.7104 108.892 82.6518 109.042C82.61 109.149 82.4546 109.119 82.3872 109.128C82.1174 109.164 81.8246 109.019 81.6101 108.624C81.493 108.409 81.428 108.114 81.28 107.96" stroke="white" stroke-width="4" stroke-linecap="round" stroke-linejoin="round"/>
<path d="M126.53 96.3673C126.002 90.0327 139.2 80.53 140.256 88.9766C141.311 97.4232 138.672 100.59 145.007 103.758C151.342 106.926 156.621 105.342 161.372 113.26C166.123 121.179 160.844 123.29 163.483 131.209C166.123 139.128 165.739 137.618 173.849 143.652C181.96 149.686 166.123 157.604 162.428 150.741C158.732 143.878 151.869 143.652 150.286 137.016C148.702 130.38 152.925 126.986 149.758 121.179C146.591 115.372 137.088 119.067 132.337 110.093C127.586 101.118 127.058 102.702 126.53 96.3673Z" fill="#EC7979"/>
<path d="M123.363 98.4788C122.835 92.1442 136.033 82.6416 137.088 91.0882C138.144 99.5348 135.505 102.702 141.839 105.87C148.174 109.037 153.453 107.453 158.204 115.372C162.955 123.29 157.677 125.402 160.316 133.321C162.955 141.239 162.571 139.73 170.682 145.764C178.793 151.797 162.955 159.716 159.26 152.853C155.565 145.99 148.702 145.764 147.118 139.127C145.535 132.491 149.758 129.097 146.591 123.29C143.423 117.484 133.921 121.179 129.17 112.204C124.419 103.23 123.891 104.813 123.363 98.4788Z" fill="#F1F1F1"/>
<path d="M120.06 100.357C119.513 93.989 132.705 84.477 133.787 92.9695C134.87 101.462 132.235 104.638 138.59 107.84C144.945 111.042 150.228 109.466 155.011 117.438C159.793 125.411 154.512 127.518 157.179 135.484C159.846 143.451 159.457 141.933 167.599 148.021C175.741 154.109 159.9 162.021 156.179 155.113C152.457 148.204 145.582 147.956 143.976 141.282C142.37 134.608 146.59 131.209 143.4 125.363C140.21 119.517 130.703 123.203 125.917 114.169C121.132 105.136 120.608 106.726 120.06 100.357Z" fill="#EC7979"/>
<path d="M118.25 101.358C117.722 95.0232 130.92 85.5205 131.976 93.9672C133.032 102.414 130.392 105.581 136.727 108.749C143.062 111.916 148.341 110.332 153.092 118.251C157.843 126.169 152.564 128.281 155.204 136.2C157.843 144.118 157.459 142.609 165.57 148.643C173.68 154.676 157.843 162.595 154.148 155.732C150.453 148.869 143.59 148.643 142.006 142.006C140.422 135.37 144.646 131.976 141.478 126.169C138.311 120.362 128.808 124.058 124.057 115.083C119.306 106.109 118.778 107.692 118.25 101.358Z" fill="#F1F1F1"/>
<path d="M119.895 100.571C118.869 94.4607 129.261 86.5669 130.93 94.7467C132.599 102.926 130.636 105.718 136.327 109.325C142.018 112.933 146.377 111.897 151.15 119.908C155.922 127.918 151.612 129.459 154.584 137.278C157.555 145.096 157.09 143.617 164.557 150.129C172.024 156.641 159.236 162.779 155.46 155.875C151.684 148.971 145.81 148.13 143.855 141.634C141.901 135.139 145.194 132.275 141.964 126.43C138.734 120.584 130.966 123.256 126.097 114.235C121.228 105.214 120.922 106.682 119.895 100.571Z" fill="#EC7979"/>
<path d="M118.358 101.033C117.161 94.9922 126.607 87.6386 128.487 95.7362C130.367 103.834 128.632 106.5 134.11 110.261C139.588 114.023 143.638 113.173 148.423 121.224C153.208 129.275 149.224 130.622 152.312 138.415C155.4 146.208 154.907 144.737 162.162 151.42C169.417 158.102 157.656 163.639 153.848 156.713C150.04 149.788 144.497 148.736 142.414 142.282C140.331 135.828 143.31 133.142 140.056 127.277C136.801 121.412 129.615 123.737 124.701 114.691C119.787 105.644 119.556 107.074 118.358 101.033Z" fill="#F1F1F1"/>
<g filter="url(#filter0_i)">
<path d="M117.445 102.646C115.992 96.8504 123.68 90.5434 125.866 98.3321C128.053 106.121 126.731 108.523 131.741 112.458C136.75 116.392 140.204 115.867 144.907 123.81C149.61 131.754 146.247 132.755 149.46 140.338C152.674 147.922 152.145 146.497 158.897 153.316C165.648 160.135 155.828 164.565 152.05 157.752C148.271 150.94 143.392 149.564 141.142 143.316C138.892 137.068 141.292 134.732 138.066 128.961C134.84 123.189 128.768 124.896 123.884 116.001C119.001 107.106 118.899 108.443 117.445 102.646Z" fill="#EC7979"/>
</g>
<path d="M90.9182 157.275L98.9204 156.665L99.1445 159.141L91.1663 159.76L90.9182 157.275Z" fill="#A7C98D"/>
<path d="M99.1403 158.944C99.1986 160.409 97.4496 161.668 95.2338 161.757C93.018 161.845 91.1978 161.316 91.1161 159.264C91.0578 157.799 92.8068 156.54 95.0226 156.452C97.2385 156.364 98.9651 157.535 99.1403 158.944Z" fill="#A7C98D"/>
<ellipse cx="94.9171" cy="156.96" rx="4.01526" ry="2.6545" transform="rotate(-2.27931 94.9171 156.96)" fill="#DFFFC6"/>
<ellipse cx="94.9879" cy="156.68" rx="3.39363" ry="2.24354" transform="rotate(-2.27931 94.9879 156.68)" fill="#87DE42"/>
<ellipse cx="95.2986" cy="156.71" rx="2.72703" ry="1.80285" transform="rotate(-2.27931 95.2986 156.71)" fill="#62C615"/>
<ellipse cx="95.7598" cy="156.504" rx="1.72238" ry="1.13867" transform="rotate(-2.27931 95.7598 156.504)" fill="#408E02"/>
<path d="M127.14 165.721L118.786 165.767L118.747 168.253L127.077 168.219L127.14 165.721Z" fill="#A7C98D"/>
<path d="M118.736 168.057C118.79 169.522 120.705 170.634 123.012 170.541C125.319 170.448 127.166 169.772 127.09 167.72C127.036 166.255 125.122 165.143 122.815 165.236C120.508 165.329 118.807 166.637 118.736 168.057Z" fill="#A7C98D"/>
<ellipse rx="4.18057" ry="2.65468" transform="matrix(-0.999189 0.0402586 0.0370485 0.999313 122.964 165.734)" fill="#DFFFC6"/>
<ellipse rx="3.53335" ry="2.24369" transform="matrix(-0.999189 0.0402586 0.0370485 0.999313 122.869 165.461)" fill="#87DE42"/>
<ellipse rx="2.8393" ry="1.80297" transform="matrix(-0.999189 0.0402586 0.0370485 0.999313 122.549 165.516)" fill="#62C615"/>
<ellipse rx="1.79329" ry="1.13875" transform="matrix(-0.999189 0.0402586 0.0370485 0.999313 122.054 165.348)" fill="#408E02"/>
<path d="M127.215 133.919L135.236 134.193L135.187 136.678L127.189 136.417L127.215 133.919Z" fill="#A7C98D"/>
<path d="M135.204 136.483C135.101 137.945 133.224 139.004 131.012 138.849C128.8 138.693 127.049 137.967 127.193 135.919C127.296 134.456 129.173 133.397 131.385 133.553C133.597 133.709 135.185 135.063 135.204 136.483Z" fill="#A7C98D"/>
<ellipse cx="131.224" cy="134.047" rx="4.01526" ry="2.6545" transform="rotate(4.0294 131.224 134.047)" fill="#DFFFC6"/>
<ellipse cx="131.326" cy="133.776" rx="3.39363" ry="2.24354" transform="rotate(4.0294 131.326 133.776)" fill="#87DE42"/>
<ellipse cx="131.631" cy="133.84" rx="2.72703" ry="1.80285" transform="rotate(4.0294 131.631 133.84)" fill="#62C615"/>
<ellipse cx="132.112" cy="133.686" rx="1.72238" ry="1.13867" transform="rotate(4.0294 132.112 133.686)" fill="#408E02"/>
<path d="M118.134 125.485L112.641 124.314L112.248 126.07L117.723 127.247L118.134 125.485Z" fill="#408E02"/>
<path d="M112.273 125.925C112.092 126.972 113.185 128.037 114.713 128.305C116.241 128.573 117.554 128.361 117.807 126.895C117.987 125.849 116.895 124.783 115.367 124.515C113.838 124.247 112.529 124.929 112.273 125.925Z" fill="#408E02"/>
<ellipse rx="2.80927" ry="1.92292" transform="matrix(-0.985054 -0.172244 -0.170258 0.985399 115.39 124.891)" fill="#D2EEBC"/>
<ellipse rx="2.37435" ry="1.62522" transform="matrix(-0.984987 -0.172628 -0.169897 0.985462 115.369 124.683)" fill="#408E02"/>
<path d="M113.096 124.842C113.037 125.329 114.027 126.171 115.35 126.422C116.393 126.435 117.187 126.212 117.497 125.527C117.614 124.845 116.843 124.141 115.775 123.954C114.707 123.766 113.213 124.161 113.096 124.842Z" fill="#202020"/>
<path d="M119.168 85.1437L113.603 84.3918L113.344 86.1734L118.892 86.9316L119.168 85.1437Z" fill="#408E02"/>
<path d="M113.358 86.0268C113.257 87.084 114.427 88.0637 115.971 88.215C117.515 88.3663 118.808 88.0556 118.949 86.5747C119.05 85.5174 117.88 84.5378 116.336 84.3865C114.792 84.2352 113.538 85.0143 113.358 86.0268Z" fill="#408E02"/>
<ellipse rx="2.80927" ry="1.92292" transform="matrix(-0.995272 -0.0971232 -0.095117 0.995466 116.388 84.7595)" fill="#D2EEBC"/>
<ellipse rx="2.37435" ry="1.62522" transform="matrix(-0.995234 -0.0975112 -0.0947515 0.995501 116.351 84.5533)" fill="#408E02"/>
<path d="M114.096 84.8845C114.074 85.3746 115.125 86.1384 116.463 86.2884C117.505 86.2229 118.28 85.9401 118.537 85.2334C118.602 84.545 117.78 83.9012 116.701 83.7954C115.621 83.6897 114.162 84.1961 114.096 84.8845Z" fill="#202020"/>
<path d="M136.218 117.011L130.726 115.84L130.332 117.597L135.807 118.773L136.218 117.011Z" fill="#408E02"/>
<path d="M130.357 117.452C130.177 118.498 131.269 119.564 132.798 119.832C134.326 120.1 135.639 119.888 135.891 118.422C136.072 117.375 134.979 116.31 133.451 116.042C131.923 115.774 130.613 116.456 130.357 117.452Z" fill="#408E02"/>
<ellipse rx="2.80927" ry="1.92292" transform="matrix(-0.985054 -0.172244 -0.170258 0.985399 133.475 116.418)" fill="#D2EEBC"/>
<ellipse rx="2.37435" ry="1.62522" transform="matrix(-0.984987 -0.172628 -0.169897 0.985462 133.453 116.209)" fill="#408E02"/>
<path d="M131.18 116.369C131.121 116.856 132.111 117.697 133.434 117.948C134.478 117.962 135.272 117.738 135.581 117.053C135.699 116.372 134.928 115.668 133.859 115.48C132.791 115.293 131.298 115.688 131.18 116.369Z" fill="#EC7979"/>
<path d="M80.1246 138.155L74.6322 136.983L74.2388 138.74L79.7135 139.916L80.1246 138.155Z" fill="#408E02"/>
<path d="M74.2638 138.595C74.0833 139.642 75.1759 140.707 76.7041 140.975C78.2324 141.243 79.5452 141.031 79.7979 139.565C79.9784 138.518 78.8858 137.453 77.3575 137.185C75.8293 136.917 74.5199 137.599 74.2638 138.595Z" fill="#408E02"/>
<ellipse rx="2.80927" ry="1.92292" transform="matrix(-0.985054 -0.172244 -0.170258 0.985399 77.3813 137.561)" fill="#D2EEBC"/>
<ellipse rx="2.37435" ry="1.62522" transform="matrix(-0.984987 -0.172628 -0.169897 0.985462 77.3598 137.352)" fill="#408E02"/>
<path d="M75.0868 137.512C75.0278 137.999 76.0179 138.84 77.3406 139.091C78.3845 139.105 79.1782 138.882 79.4878 138.196C79.6053 137.515 78.8345 136.811 77.7661 136.623C76.6977 136.436 75.2043 136.831 75.0868 137.512Z" fill="white"/>
<path d="M49.4371 106.984L53.0365 109.845L52.1311 111.009L48.5377 108.161L49.4371 106.984Z" fill="#408E02"/>
<path d="M52.2097 110.917C51.6423 111.576 50.4001 111.44 49.4353 110.614C48.4705 109.788 47.921 108.848 48.7158 107.925C49.2833 107.266 50.5254 107.402 51.4902 108.228C52.455 109.054 52.7058 110.237 52.2097 110.917Z" fill="#408E02"/>
<ellipse rx="2.3001" ry="1.5744" transform="matrix(0.759257 0.650791 -0.65232 0.757944 51.2405 108.409)" fill="#D2EEBC"/>
<ellipse rx="1.94401" ry="1.33066" transform="matrix(0.75951 0.650495 -0.652598 0.757704 51.383 108.313)" fill="#408E02"/>
<path d="M52.4657 109.834C52.1886 110.124 51.1416 109.937 50.2944 109.231C49.7424 108.579 49.4703 107.961 49.7422 107.408C50.1117 106.979 50.958 107.1 51.6325 107.678C52.307 108.255 52.8352 109.405 52.4657 109.834Z" fill="white"/>
<path d="M142.043 161.495L150.067 161.659L150.052 164.144L142.051 163.993L142.043 161.495Z" fill="#A7C98D"/>
<path d="M150.066 163.948C149.983 165.412 148.121 166.497 145.907 166.371C143.693 166.246 141.933 165.544 142.049 163.494C142.132 162.03 143.994 160.945 146.208 161.071C148.422 161.196 150.028 162.529 150.066 163.948Z" fill="#A7C98D"/>
<ellipse cx="146.054" cy="161.567" rx="4.01526" ry="2.6545" transform="rotate(3.24623 146.054 161.567)" fill="#DFFFC6"/>
<ellipse cx="146.151" cy="161.295" rx="3.39363" ry="2.24354" transform="rotate(3.24623 146.151 161.295)" fill="#87DE42"/>
<path d="M148.854 161.2C148.797 162.194 147.532 162.931 146.029 162.846C144.525 162.761 143.352 161.886 143.408 160.892C143.465 159.897 144.729 159.161 146.233 159.246C147.737 159.331 148.91 160.206 148.854 161.2Z" fill="#62C615"/>
<path d="M147.947 160.731C147.912 161.359 147.113 161.824 146.163 161.77C145.213 161.716 144.472 161.164 144.508 160.536C144.544 159.908 145.342 159.442 146.292 159.496C147.242 159.55 147.983 160.103 147.947 160.731Z" fill="#408E02"/>
<path d="M156.825 139.323L164.848 139.487L164.833 141.972L156.832 141.821L156.825 139.323Z" fill="#A7C98D"/>
<path d="M164.848 141.776C164.765 143.24 162.903 144.325 160.689 144.199C158.475 144.074 156.714 143.372 156.83 141.322C156.913 139.858 158.775 138.773 160.989 138.899C163.203 139.024 164.809 140.357 164.848 141.776Z" fill="#A7C98D"/>
<ellipse cx="160.835" cy="139.395" rx="4.01526" ry="2.6545" transform="rotate(3.24623 160.835 139.395)" fill="#DFFFC6"/>
<ellipse cx="160.933" cy="139.123" rx="3.39363" ry="2.24354" transform="rotate(3.24623 160.933 139.123)" fill="#87DE42"/>
<path d="M163.635 139.029C163.579 140.023 162.314 140.759 160.81 140.674C159.306 140.589 158.133 139.714 158.19 138.72C158.246 137.726 159.511 136.989 161.014 137.074C162.518 137.16 163.691 138.035 163.635 139.029Z" fill="#62C615"/>
<path d="M162.729 138.559C162.693 139.187 161.894 139.652 160.945 139.598C159.995 139.544 159.254 138.992 159.289 138.364C159.325 137.736 160.124 137.271 161.073 137.325C162.023 137.378 162.764 137.931 162.729 138.559Z" fill="#408E02"/>
<path d="M102.026 138.468L107.871 139.035L107.722 140.847L101.893 140.291L102.026 138.468Z" fill="#A7C98D"/>
<path d="M107.743 140.705C107.601 141.768 106.182 142.456 104.574 142.241C102.966 142.026 101.72 141.416 101.919 139.927C102.061 138.863 103.48 138.176 105.088 138.391C106.697 138.605 107.794 139.667 107.743 140.705Z" fill="#A7C98D"/>
<ellipse cx="104.948" cy="138.744" rx="2.93798" ry="1.94231" transform="rotate(7.61234 104.948 138.744)" fill="#DFFFC6"/>
<ellipse cx="105.035" cy="138.551" rx="2.48313" ry="1.64161" transform="rotate(7.61234 105.035 138.551)" fill="#87DE42"/>
<ellipse cx="105.255" cy="138.612" rx="1.99538" ry="1.31915" transform="rotate(7.61234 105.255 138.612)" fill="#62C615"/>
<ellipse cx="105.613" cy="138.521" rx="1.26027" ry="0.833169" transform="rotate(7.61234 105.613 138.521)" fill="#408E02"/>
<path d="M91.4685 124.742L97.3133 125.309L97.1636 127.122L91.3349 126.565L91.4685 124.742Z" fill="#A7C98D"/>
<path d="M97.1853 126.979C97.0432 128.043 95.6243 128.73 94.016 128.515C92.4077 128.3 91.1621 127.69 91.3612 126.201C91.5033 125.138 92.9223 124.45 94.5306 124.665C96.1389 124.88 97.2362 125.941 97.1853 126.979Z" fill="#A7C98D"/>
<ellipse cx="94.3905" cy="125.018" rx="2.93798" ry="1.94231" transform="rotate(7.61234 94.3905 125.018)" fill="#DFFFC6"/>
<ellipse cx="94.4768" cy="124.825" rx="2.48313" ry="1.64161" transform="rotate(7.61234 94.4768 124.825)" fill="#87DE42"/>
<ellipse cx="94.697" cy="124.886" rx="1.99538" ry="1.31915" transform="rotate(7.61234 94.697 124.886)" fill="#62C615"/>
<ellipse cx="95.0553" cy="124.795" rx="1.26027" ry="0.833169" transform="rotate(7.61234 95.0553 124.795)" fill="#408E02"/>
<path d="M172.123 8.84544C178.711 5.30799 178.942 6.97084 182.106 4.95564C180 7.99971 173.864 7.28711 171.457 15.1419C170.273 18.6309 171.027 20.5166 171.776 23.0085C172.785 27.8316 171.544 30.4998 168.736 32.6074C165.927 34.7149 164.916 33.9856 158.555 39.5165C156.625 41.7933 155.625 48.194 155.516 54.9678C152.986 47.8625 153.288 41.2739 153.639 38.8158C153.989 36.3577 161.361 31.5564 163.117 30.9705C164.873 30.3845 166.667 28.263 166.076 23.571C164.661 14.1469 171.928 8.79856 172.123 8.84544Z" fill="#C4C4C4"/>
<path d="M196.588 83.5941C195.816 79.0885 194.879 79.4793 194.67 77.2187C193.943 79.2463 196.701 82.2122 193.644 85.8727C192.331 87.5584 191.077 87.7463 189.517 88.1226C186.669 89.0797 185.796 90.5429 185.82 92.6477C185.844 94.7524 186.61 95.0535 186.279 100.053C185.874 101.754 183.008 104.238 179.604 106.374C184.207 105.506 187.441 103.326 188.555 102.39C189.669 101.453 189.234 96.1524 188.846 95.0614C188.459 93.9703 188.838 92.3877 191.456 91.2538C196.804 89.0945 196.688 83.6808 196.588 83.5941Z" fill="#C4C4C4"/>
<path d="M191.698 44.7996C196.376 43.3278 196.462 44.4127 198.722 43.5046C197.143 45.1919 192.961 44.0141 190.967 48.7255C190.003 50.8047 190.438 52.093 190.844 53.7663C191.327 56.9529 190.359 58.5034 188.339 59.5121C186.319 60.5208 185.656 59.9375 181.048 62.704C179.623 63.9241 178.659 67.8769 178.289 72.1721C176.861 67.3543 177.355 63.1997 177.703 61.6778C178.05 60.1558 183.321 57.9728 184.552 57.8075C185.783 57.6421 187.107 56.5047 186.905 53.4509C186.344 47.2902 191.566 44.7468 191.698 44.7996Z" fill="#C4C4C4"/>
<path d="M130.873 11.7511C129.856 5.81974 128.624 6.33415 128.347 3.35813C127.391 6.02744 131.022 9.93193 126.997 14.7508C125.269 16.97 123.618 17.2173 121.564 17.7127C117.815 18.9726 116.665 20.899 116.697 23.6698C116.729 26.4406 117.737 26.8369 117.302 33.4187C116.769 35.6578 112.995 38.9277 108.514 41.7401C114.574 40.5973 118.832 37.7275 120.298 36.4945C121.765 35.2615 121.191 28.2836 120.682 26.8473C120.172 25.411 120.671 23.3275 124.117 21.8348C131.157 18.9922 131.004 11.8653 130.873 11.7511Z" fill="#C4C4C4"/>
<path d="M81.1576 24.0926C86.3796 20.87 86.6507 22.2206 89.1425 20.4138C87.5677 23.0112 82.5065 22.7303 80.9232 29.2829C80.1255 32.1992 80.8359 33.7066 81.5725 35.7108C82.6371 39.6116 81.7524 41.8584 79.5559 43.7233C77.3594 45.5882 76.4948 45.0407 71.5575 49.8851C70.0888 51.8452 69.5861 57.1374 69.8311 62.6912C67.4075 56.9961 67.3302 51.5844 67.496 49.5537C67.6617 47.5229 73.4636 43.2264 74.8726 42.6598C76.2816 42.0932 77.6467 40.2669 76.931 36.4528C75.3073 28.8033 80.9956 24.0638 81.1576 24.0926Z" fill="#C4C4C4"/>
<defs>
<filter id="filter0_i" x="114.027" y="91.8555" width="50.5216" height="72.9824" filterUnits="userSpaceOnUse" color-interpolation-filters="sRGB">
<feFlood flood-opacity="0" result="BackgroundImageFix"/>
<feBlend mode="normal" in="SourceGraphic" in2="BackgroundImageFix" result="shape"/>
<feColorMatrix in="SourceAlpha" type="matrix" values="0 0 0 0 0 0 0 0 0 0 0 0 0 0 0 0 0 0 127 0" result="hardAlpha"/>
<feOffset dx="2" dy="-1"/>
<feComposite in2="hardAlpha" operator="arithmetic" k2="-1" k3="1"/>
<feColorMatrix type="matrix" values="0 0 0 0 0 0 0 0 0 0 0 0 0 0 0 0 0 0 0.28 0"/>
<feBlend mode="normal" in2="shape" result="effect1_innerShadow"/>
</filter>
</defs>
</svg>
